<svg version="1.2" xmlns="http://www.w3.org/2000/svg" viewBox="0 0 70 70" width="70" height="70">
	<style>
		.s0 { fill: none;stroke: #000000;stroke-linecap: round;stroke-linejoin: round;stroke-width: 4.4 } 
	</style>
	<path class="s0" d="m41.56 52.5v-3.28c0-3.97 4.31-7.72 7.11-10.39 3.94-3.77 6.02-8.84 6.02-14.77 0-10.94-8.72-19.68-19.69-19.68-2.59-0.01-5.15 0.49-7.54 1.48-2.39 0.99-4.57 2.44-6.4 4.27-1.83 1.82-3.28 4-4.26 6.39-0.99 2.39-1.49 4.96-1.49 7.54 0 5.72 2.16 11.13 6.02 14.77 2.78 2.62 7.11 6.38 7.11 10.39v3.28m2.18 13.13l8.75-0.01m-10.93-6.56h13.12m-6.56-6.56v-17.5"/>
	<path class="s0" d="m40.2 32.81c0 0-2.95 2.19-5.2 2.19-2.25 0-5.2-2.19-5.2-2.19"/>
</svg>