<svg version="1.2" xmlns="http://www.w3.org/2000/svg" viewBox="0 0 50 50" width="50" height="50">
	<style>
		.s0 { fill: none;stroke: #1c274c;stroke-linecap: round;stroke-linejoin: round;stroke-width: 3.1 } 
		.s1 { fill: #1c274c } 
	</style>
	<path class="s0" d="m28.13 16.67h6.25l-6.25 6.25h6.25"/>
	<path class="s0" d="m37.5 4.17h8.33l-8.33 8.33h8.33"/>
	<path class="s1" d="m42.55 23.89c-2.1 3.48-5.91 5.8-10.26 5.8v3.12c5.49 0 10.29-2.93 12.94-7.3zm-22.24-6.19c0-4.35 2.32-8.16 5.79-10.26l-1.61-2.67c-4.38 2.64-7.31 7.44-7.31 12.93zm23.96 7.3c0 10.64-8.63 19.27-19.27 19.27v3.12c12.37 0 22.4-10.02 22.4-22.39zm-19.28 19.27c-10.64 0-19.27-8.63-19.27-19.27h-3.12c0 12.37 10.03 22.39 22.39 22.39zm-19.27-19.27c0-10.64 8.63-19.27 19.27-19.27v-3.12c-12.36 0-22.39 10.02-22.39 22.39zm26.56 4.69c-6.61 0-11.98-5.36-11.98-11.98h-3.12c0 8.34 6.76 15.1 15.1 15.1zm12.94-4.17c-0.14 0.22-0.33 0.22-0.39 0.21-0.05 0-0.18-0.03-0.32-0.17-0.17-0.15-0.25-0.37-0.25-0.55h3.13c0-1.5-1.19-2.24-2.14-2.37-0.91-0.13-2.07 0.21-2.71 1.26zm-20.22-19.78c-0.19 0-0.41-0.08-0.56-0.25-0.14-0.14-0.17-0.27-0.17-0.32-0.01-0.06-0.01-0.25 0.22-0.39l1.61 2.68c1.05-0.64 1.39-1.8 1.26-2.71-0.12-0.95-0.87-2.14-2.36-2.14zm0.29 0.38l-0.8-1.33zm18.59 18.59l-1.34-0.81z"/>
</svg>